<svg version="1.1" id="Layer_1" xmlns="http://www.w3.org/2000/svg" xmlns:xlink="http://www.w3.org/1999/xlink" x="0px" y="0px"
	 width="100%" viewBox="0 0 1000 765" enable-background="new 0 0 1000 765" xml:space="preserve">
<!-- white background -->
<path fill="#FFFFFF" opacity="1.000000" stroke="none"
	d="
M631.000000,766.000000
	C420.666656,766.000000 210.833328,766.000000 1.000000,766.000000
	C1.000000,511.000000 1.000000,256.000000 1.000000,1.000000
	C334.333344,1.000000 667.666687,1.000000 1001.000000,1.000000
	C1001.000000,256.000000 1001.000000,511.000000 1001.000000,766.000000
	C877.833313,766.000000 754.666687,766.000000 631.000000,766.000000
M3.999532,412.543640
	C3.999532,433.194580 3.999532,453.845520 3.999532,474.537354
	C5.637043,475.158447 7.015555,475.699585 8.406620,476.206268
	C31.994457,484.797699 55.566849,493.432190 79.193878,501.914520
	C82.236641,503.006927 84.049934,504.582306 85.290733,507.675995
	C92.655251,526.038147 100.366516,544.261719 107.659439,562.651550
	C108.563065,564.930115 108.459625,568.246155 107.501434,570.526062
	C98.161331,592.750366 88.595818,614.880920 78.930267,636.966309
	C77.670670,639.844360 77.938362,641.641602 80.120308,643.927246
	C95.538834,660.078735 110.861137,676.323181 126.078140,692.664673
	C128.293564,695.043762 129.996689,695.283997 132.851715,693.817993
	C154.600998,682.650146 176.464996,671.705566 198.207458,660.524658
	C201.143661,659.014771 203.552368,658.802917 206.627396,660.045959
	C221.886078,666.213867 237.246857,672.128601 252.543640,678.203125
	C258.553375,680.589600 266.100464,681.711121 270.007599,686.053772
	C273.921692,690.404236 274.205872,698.043396 276.015686,704.260132
	C281.772247,724.033630 287.498322,743.815979 293.299194,763.812073
	C295.344879,763.812073 297.162231,763.834229 298.978882,763.808594
	C320.306122,763.507629 341.632660,763.108276 362.960876,762.983032
	C366.501862,762.962219 368.122742,761.924500 369.346588,758.543579
	C377.437805,736.191589 385.835327,713.950623 393.960175,691.610657
	C395.085754,688.515747 396.811768,686.770996 399.800262,685.507629
	C416.952393,678.256653 434.063660,670.905212 451.094391,663.374390
	C454.294891,661.959167 456.865295,662.067871 460.009644,663.471741
	C482.935181,673.707275 505.921875,683.806885 528.957092,693.793030
	C530.635620,694.520691 533.556763,694.887268 534.700439,693.953064
	C545.300415,685.294250 555.906128,676.604370 565.954956,667.322327
	C572.665833,661.123474 578.337708,653.813477 584.757874,647.279175
	C587.226013,644.767090 587.145630,642.825195 585.700623,639.894470
	C575.478760,619.162354 565.348816,598.383545 555.429077,577.505798
	C554.432739,575.408875 554.252136,572.283813 555.011230,570.092590
	C562.520630,548.416687 570.223816,526.806152 578.152771,505.280518
	C578.915222,503.210724 581.282410,501.067291 583.398010,500.274292
	C593.200134,496.600250 603.179688,493.400146 613.089722,490.013062
	C627.997253,484.917938 642.899841,479.808441 657.933044,474.661072
	C657.933044,451.846222 657.832031,429.357758 658.032959,406.872009
	C658.066284,403.145782 656.708557,401.852692 653.412415,400.679565
	C629.606995,392.206940 605.859192,383.568634 582.184998,374.736694
	C580.060791,373.944244 577.822510,371.734680 576.929810,369.634003
	C569.193054,351.426697 561.832458,333.059875 554.149048,314.829346
	C552.783081,311.588348 553.043152,308.955017 554.393982,305.862366
	C563.910950,284.073730 573.212280,262.190704 582.783630,240.426300
	C584.218750,237.163010 583.800110,235.199799 581.355957,232.649246
	C566.136841,216.768021 551.033630,200.773376 536.087280,184.635483
	C533.545471,181.891022 531.709290,181.792511 528.523010,183.434677
	C506.791077,194.635223 484.982391,205.689545 463.079498,216.551163
	C461.038025,217.563553 457.861908,217.717331 455.734253,216.904434
	C435.388916,209.131271 415.126038,201.137894 394.939270,192.961288
	C393.010681,192.180099 391.004181,189.985870 390.328430,188.005829
	C387.914948,180.933746 386.071228,173.667816 383.991150,166.481262
	C378.870300,148.788895 373.737915,131.099869 368.609985,113.408951
	C367.619019,113.302841 366.967407,113.164795 366.317749,113.173378
	C343.324188,113.477097 320.331268,113.863609 297.336792,114.029480
	C294.188324,114.052185 293.561920,115.760849 292.716736,118.057007
	C284.505280,140.365860 276.137482,162.617706 268.046570,184.969879
	C266.790588,188.439682 264.831421,190.342743 261.544617,191.729874
	C244.541016,198.905792 227.575241,206.175674 210.697876,213.642487
	C207.473419,215.069031 204.903427,214.887421 201.785461,213.497116
	C178.854904,203.272400 155.846436,193.222549 132.881851,183.073853
	C130.492920,182.018097 128.596313,181.386246 126.145508,183.505508
	C109.157845,198.195068 91.680145,212.332489 77.121986,229.628082
	C74.938187,232.222519 74.615181,234.047607 76.093605,237.044571
	C86.320175,257.775177 96.437035,278.561218 106.359657,299.438477
	C107.358536,301.540100 107.636772,304.646667 106.886185,306.814911
	C99.381912,328.492981 91.675072,350.102783 83.748680,371.629944
	C82.983078,373.709290 80.650215,375.860840 78.540482,376.680267
	C70.645470,379.746735 62.536522,382.260956 54.515530,385.004852
	C37.719048,390.750763 20.927473,396.511047 3.999546,402.311432
	C3.999546,405.585571 3.999546,408.575134 3.999532,412.543640
M774.029480,378.530212
	C774.997681,377.175415 776.186218,375.925720 776.892090,374.445801
	C778.905090,370.225403 782.360107,368.774139 786.779602,368.228455
	C797.017456,366.964417 807.193115,365.173035 817.444214,364.056671
	C819.865295,363.793030 822.996643,364.687561 824.929321,366.179138
	C836.795044,375.336670 848.350525,384.895538 860.185120,394.094635
	C861.653931,395.236359 864.670959,396.039520 866.109192,395.307373
	C878.234070,389.134583 890.119934,382.494324 902.171509,376.173431
	C905.005432,374.687073 905.183960,372.850616 904.624817,370.071930
	C901.869263,356.376129 899.189697,342.662598 896.757507,328.906860
	C896.405762,326.918030 896.957886,324.279877 898.077820,322.599335
	C905.647827,311.239594 913.564087,300.111053 921.173035,288.776611
	C922.962097,286.111603 925.009949,285.179260 928.131531,285.000916
	C943.095337,284.145935 958.047729,283.080475 972.994141,281.955200
	C974.215271,281.863220 976.169861,280.986267 976.419556,280.092834
	C980.386719,265.896637 984.130920,251.638107 987.905396,237.471497
	C974.105286,227.830978 960.664795,218.580246 947.432373,209.040970
	C945.555359,207.687851 943.848755,205.061859 943.498352,202.802460
	C941.739014,191.457413 940.540466,180.026733 938.955383,168.652557
	C938.484314,165.271759 939.237183,162.687439 941.417847,159.997238
	C950.436584,148.870956 959.168518,137.512466 968.153259,126.358093
	C969.763733,124.358688 969.920837,122.895432 968.691895,120.672447
	C962.172974,108.880974 955.725952,97.047646 949.452209,85.124481
	C948.059387,82.477478 946.641602,81.628975 943.646118,82.298325
	C929.204041,85.525467 914.736694,88.654121 900.216370,91.501495
	C898.114685,91.913635 895.229797,91.246719 893.468689,90.001953
	C882.999268,82.602112 872.828735,74.780029 862.381287,67.347977
	C859.730225,65.462097 858.901672,63.452480 858.929932,60.329258
	C859.071716,44.683147 858.994873,29.035061 858.994873,13.250779
	C844.175354,9.531315 830.460449,6.242389 816.849976,2.566804
	C813.385315,1.631141 811.507751,2.124859 809.440857,5.153614
	C801.652100,16.566988 793.424011,27.680958 785.660339,39.110809
	C783.559570,42.203674 781.099731,43.480770 777.595703,43.945293
	C767.039917,45.344650 756.532349,47.127285 745.959656,48.364483
	C743.663696,48.633148 740.661194,47.915577 738.857422,46.521950
	C726.732605,37.154297 714.895508,27.414671 702.804443,18.002119
	C701.464355,16.958906 698.650391,16.320023 697.299011,17.012943
	C685.051575,23.292643 672.992676,29.939001 660.839294,36.404106
	C658.583984,37.603878 658.060669,38.936813 658.608704,41.571522
	C661.453308,55.248550 664.130432,68.964844 666.524109,82.726921
	C666.926147,85.038475 666.330322,88.088493 665.043335,90.035881
	C657.517944,101.423256 649.736511,112.646118 641.799438,123.751495
	C640.664612,125.339386 638.284058,126.786224 636.366760,126.946808
	C621.431580,128.197693 606.474487,129.220978 591.509766,130.057388
	C588.292725,130.237198 586.872559,131.366287 586.092529,134.431534
	C582.976929,146.674667 579.711792,158.881287 576.342346,171.057220
	C575.557983,173.891449 576.124207,175.514252 578.639343,177.227844
	C591.297241,185.851730 603.868408,194.608231 616.287598,203.570984
	C618.028198,204.827133 619.515747,207.365814 619.835388,209.503021
	C621.533569,220.857925 622.612244,232.306763 624.376404,243.649826
	C624.924683,247.175308 624.140015,249.571335 622.013306,252.209778
	C613.233337,263.102448 604.753357,274.238556 595.883606,285.056061
	C593.559875,287.890076 593.650391,289.959778 595.310486,292.934937
	C601.470154,303.974060 607.615234,315.033020 613.298523,326.319824
	C615.236389,330.168274 617.433899,330.578033 621.127991,329.759064
	C635.089355,326.663818 649.075012,323.660553 663.118347,320.971405
	C665.327271,320.548431 668.343079,321.272095 670.198914,322.581116
	C680.538818,329.874420 690.577332,337.593781 700.860413,344.970123
	C703.278503,346.704681 704.289246,348.510773 704.321594,351.499298
	C704.480103,366.158691 704.912781,380.814850 705.129639,395.473969
	C705.169128,398.143677 705.717834,399.560059 708.733154,400.267090
	C721.842224,403.340912 734.892334,406.677094 747.907410,410.130829
	C750.481873,410.813995 751.764587,410.184967 753.197937,408.113220
	C759.923523,398.392181 766.804443,388.778656 774.029480,378.530212
M870.866028,489.416718
	C869.295044,488.619476 867.697021,487.098785 866.157959,487.156311
	C860.844238,487.354889 855.488586,487.762115 850.263855,488.718475
	C841.124023,490.391449 833.038513,489.679901 826.710449,481.726501
	C824.467224,478.907074 821.056396,477.044861 818.557922,474.388885
	C817.240234,472.988159 816.093140,470.858978 815.978455,468.990570
	C815.406860,459.680542 815.338684,450.339386 814.749878,441.030914
	C814.640686,439.305908 813.348511,436.775299 811.932129,436.160339
	C804.328979,432.859161 796.500366,430.080688 788.780090,427.043976
	C786.444214,426.125153 784.952576,426.575348 783.366516,428.685486
	C778.363403,435.341644 773.260071,441.939606 767.835693,448.250885
	C766.305603,450.031189 763.649109,451.475952 761.322205,451.823792
	C753.425598,453.004364 745.456848,453.797424 737.488525,454.337769
	C735.513916,454.471680 732.907715,453.651306 731.497253,452.314331
	C724.970032,446.127228 718.651672,439.706848 712.500427,433.143311
	C710.387268,430.888489 708.694214,430.675781 706.050110,432.042450
	C699.551025,435.401703 692.971924,438.623932 686.298706,441.619751
	C683.622253,442.821259 682.552612,444.226105 682.925659,447.241486
	C684.008972,455.997406 684.725037,464.798553 685.784912,473.557800
	C686.170166,476.742035 685.660156,479.194061 683.275024,481.614319
	C678.719177,486.237122 674.715759,491.407104 670.123901,495.989990
	C668.434509,497.676086 665.798645,499.133331 663.475464,499.337036
	C654.686462,500.107727 645.835876,500.164734 637.040771,500.885590
	C635.434753,501.017212 633.226562,502.683655 632.584595,504.190460
	C629.459290,511.526093 626.902466,519.102173 623.859558,526.475586
	C622.764343,529.129578 623.150940,530.563110 625.480042,532.260254
	C632.747192,537.555847 639.924500,542.989685 646.892334,548.669556
	C648.439697,549.930908 649.635925,552.342712 649.876648,554.358215
	C650.745239,561.628479 651.021912,568.967468 651.763062,576.255981
	C652.073669,579.310425 651.507690,581.496948 649.014038,583.632324
	C641.461487,590.099854 634.175659,596.878906 626.838806,603.489014
	C627.387390,604.688354 627.709106,605.450684 628.078125,606.189392
	C631.720886,613.481384 635.518494,620.701233 638.942688,628.094238
	C640.195312,630.798828 641.867004,631.206116 644.431580,630.874390
	C649.219116,630.255188 654.037964,629.881592 658.830933,629.299988
	C673.229065,627.553040 673.226746,627.533020 684.062683,636.873230
	C686.460632,638.940186 689.130554,640.775269 691.162659,643.154907
	C692.621338,644.863037 693.941162,647.251282 694.088623,649.420044
	C694.709778,658.558044 694.728210,667.736450 695.318237,676.877502
	C695.429810,678.606140 696.746704,681.128845 698.176880,681.754211
	C705.620911,685.009216 713.292480,687.740845 720.860840,690.715820
	C723.606323,691.795044 725.357605,691.030273 727.141479,688.633301
	C731.813110,682.355896 736.911194,676.396301 741.600586,670.131470
	C743.655457,667.386230 745.887695,666.057129 749.425598,665.823669
	C757.059265,665.319824 764.639893,664.017700 772.273376,663.503784
	C774.399536,663.360657 777.198364,664.233826 778.721680,665.667847
	C785.269226,671.831665 791.545837,678.293701 797.722168,684.834961
	C799.648499,686.875183 801.163452,687.275391 803.700317,685.964600
	C810.347412,682.529846 817.073242,679.225830 823.910400,676.191162
	C826.708923,674.949036 827.444702,673.375000 827.095459,670.467224
	C826.023315,661.541199 825.031616,652.597046 824.402222,643.632324
	C824.249390,641.454590 825.026672,638.702026 826.379700,637.021851
	C830.762817,631.578796 835.457092,626.357788 840.372803,621.388855
	C841.937927,619.806702 844.513672,618.568359 846.722900,618.395020
	C855.354614,617.717712 864.022278,617.402222 872.682068,617.234192
	C875.456482,617.180298 876.803650,616.269348 877.728149,613.665588
	C880.397644,606.147644 883.180664,598.660645 886.244385,591.296814
	C887.393921,588.533997 886.710999,587.172546 884.483582,585.541443
	C877.496460,580.425171 870.517151,575.273376 863.871216,569.731873
	C861.994263,568.166870 860.492493,565.322815 860.164856,562.884460
	C859.190613,555.633423 858.666260,548.298706 858.458252,540.982666
	C858.398132,538.867188 859.427490,536.109009 860.934387,534.664795
	C868.137878,527.760437 875.677002,521.206360 883.292236,514.351929
	C879.192017,506.168396 875.178284,498.157471 870.866028,489.416718
z"/>
<!-- large cogwheel body -->
<path fill="#0177B9" opacity="1.000000" stroke="none"
	d="
M3.999539,412.054169
	C3.999546,408.575134 3.999546,405.585571 3.999546,402.311432
	C20.927473,396.511047 37.719048,390.750763 54.515530,385.004852
	C62.536522,382.260956 70.645470,379.746735 78.540482,376.680267
	C80.650215,375.860840 82.983078,373.709290 83.748680,371.629944
	C91.675072,350.102783 99.381912,328.492981 106.886185,306.814911
	C107.636772,304.646667 107.358536,301.540100 106.359657,299.438477
	C96.437035,278.561218 86.320175,257.775177 76.093605,237.044571
	C74.615181,234.047607 74.938187,232.222519 77.121986,229.628082
	C91.680145,212.332489 109.157845,198.195068 126.145508,183.505508
	C128.596313,181.386246 130.492920,182.018097 132.881851,183.073853
	C155.846436,193.222549 178.854904,203.272400 201.785461,213.497116
	C204.903427,214.887421 207.473419,215.069031 210.697876,213.642487
	C227.575241,206.175674 244.541016,198.905792 261.544617,191.729874
	C264.831421,190.342743 266.790588,188.439682 268.046570,184.969879
	C276.137482,162.617706 284.505280,140.365860 292.716736,118.057007
	C293.561920,115.760849 294.188324,114.052185 297.336792,114.029480
	C320.331268,113.863609 343.324188,113.477097 366.317749,113.173378
	C366.967407,113.164795 367.619019,113.302841 368.609985,113.408951
	C373.737915,131.099869 378.870300,148.788895 383.991150,166.481262
	C386.071228,173.667816 387.914948,180.933746 390.328430,188.005829
	C391.004181,189.985870 393.010681,192.180099 394.939270,192.961288
	C415.126038,201.137894 435.388916,209.131271 455.734253,216.904434
	C457.861908,217.717331 461.038025,217.563553 463.079498,216.551163
	C484.982391,205.689545 506.791077,194.635223 528.523010,183.434677
	C531.709290,181.792511 533.545471,181.891022 536.087280,184.635483
	C551.033630,200.773376 566.136841,216.768021 581.355957,232.649246
	C583.800110,235.199799 584.218750,237.163010 582.783630,240.426300
	C573.212280,262.190704 563.910950,284.073730 554.393982,305.862366
	C553.043152,308.955017 552.783081,311.588348 554.149048,314.829346
	C561.832458,333.059875 569.193054,351.426697 576.929810,369.634003
	C577.822510,371.734680 580.060791,373.944244 582.184998,374.736694
	C605.859192,383.568634 629.606995,392.206940 653.412415,400.679565
	C656.708557,401.852692 658.066284,403.145782 658.032959,406.872009
	C657.832031,429.357758 657.933044,451.846222 657.933044,474.661072
	C642.899841,479.808441 627.997253,484.917938 613.089722,490.013062
	C603.179688,493.400146 593.200134,496.600250 583.398010,500.274292
	C581.282410,501.067291 578.915222,503.210724 578.152771,505.280518
	C570.223816,526.806152 562.520630,548.416687 555.011230,570.092590
	C554.252136,572.283813 554.432739,575.408875 555.429077,577.505798
	C565.348816,598.383545 575.478760,619.162354 585.700623,639.894470
	C587.145630,642.825195 587.226013,644.767090 584.757874,647.279175
	C578.337708,653.813477 572.665833,661.123474 565.954956,667.322327
	C555.906128,676.604370 545.300415,685.294250 534.700439,693.953064
	C533.556763,694.887268 530.635620,694.520691 528.957092,693.793030
	C505.921875,683.806885 482.935181,673.707275 460.009644,663.471741
	C456.865295,662.067871 454.294891,661.959167 451.094391,663.374390
	C434.063660,670.905212 416.952393,678.256653 399.800262,685.507629
	C396.811768,686.770996 395.085754,688.515747 393.960175,691.610657
	C385.835327,713.950623 377.437805,736.191589 369.346588,758.543579
	C368.122742,761.924500 366.501862,762.962219 362.960876,762.983032
	C341.632660,763.108276 320.306122,763.507629 298.978882,763.808594
	C297.162231,763.834229 295.344879,763.812073 293.299194,763.812073
	C287.498322,743.815979 281.772247,724.033630 276.015686,704.260132
	C274.205872,698.043396 273.921692,690.404236 270.007599,686.053772
	C266.100464,681.711121 258.553375,680.589600 252.543640,678.203125
	C237.246857,672.128601 221.886078,666.213867 206.627396,660.045959
	C203.552368,658.802917 201.143661,659.014771 198.207458,660.524658
	C176.464996,671.705566 154.600998,682.650146 132.851715,693.817993
	C129.996689,695.283997 128.293564,695.043762 126.078140,692.664673
	C110.861137,676.323181 95.538834,660.078735 80.120308,643.927246
	C77.938362,641.641602 77.670670,639.844360 78.930267,636.966309
	C88.595818,614.880920 98.161331,592.750366 107.501434,570.526062
	C108.459625,568.246155 108.563065,564.930115 107.659439,562.651550
	C100.366516,544.261719 92.655251,526.038147 85.290733,507.675995
	C84.049934,504.582306 82.236641,503.006927 79.193878,501.914520
	C55.566849,493.432190 31.994457,484.797699 8.406620,476.206268
	C7.015555,475.699585 5.637043,475.158447 3.999532,474.537354
	C3.999532,453.845520 3.999532,433.194580 3.999539,412.054169
M495.451965,536.907898
	C511.612152,510.478851 520.547485,481.653839 522.803833,450.900726
	C524.143250,432.644806 522.800903,414.389252 518.653076,396.464661
	C508.792877,353.854309 486.922729,318.634857 453.264404,290.746887
	C422.790344,265.497223 387.523346,251.495499 348.334351,248.242401
	C322.523102,246.099792 296.929169,248.894943 272.192993,257.408936
	C236.017700,269.860199 205.914047,290.924072 182.451889,321.145203
	C155.770325,355.513184 142.574310,394.787109 142.257111,438.137665
	C142.165695,450.630981 143.782166,463.321075 146.187317,475.613434
	C153.080933,510.845612 169.136398,541.714844 193.614655,567.927368
	C211.730850,587.327087 233.049698,602.505798 257.633667,612.830139
	C279.558350,622.037781 302.307770,627.870544 326.191925,627.893311
	C337.609772,627.904236 349.093445,627.250793 360.434662,625.930725
	C389.563568,622.540344 415.988495,611.521606 440.067596,595.157715
	C462.449432,579.947266 480.861267,560.678650 495.451965,536.907898
M334.448547,240.041824
	C335.281586,240.041519 336.132263,239.930191 336.944763,240.059250
	C341.612823,240.800613 343.566193,239.161713 343.135101,234.168564
	C342.706787,229.207367 343.210083,224.172592 342.982605,219.184799
	C342.830536,215.850388 344.085693,214.861938 347.311737,214.949326
	C354.470520,215.143250 361.639740,214.924820 368.801544,215.051956
	C371.617859,215.101944 373.117615,214.501678 373.025024,211.227707
	C372.832062,204.402298 372.871582,197.565689 373.011688,190.737701
	C373.069794,187.906784 372.027252,186.896835 369.229340,186.989197
	C364.569489,187.143005 359.900757,187.027618 355.235779,187.027588
	C333.743561,187.027466 312.251007,186.982269 290.759705,187.122604
	C289.185455,187.132874 286.286560,188.434418 286.255554,189.223938
	C285.925415,197.642563 286.050476,206.079025 286.050476,215.100067
	C295.642395,215.100067 304.547394,215.100067 314.034241,215.100067
	C314.034241,223.600922 314.034241,231.505676 314.034241,240.042099
	C320.899841,240.042099 327.180084,240.042099 334.448547,240.041824
M499.965820,297.494781
	C500.921326,296.201691 501.876862,294.908630 503.172211,293.155670
	C491.317352,282.558899 479.748779,272.218018 467.800629,261.537872
	C462.562164,267.511780 457.697296,273.059662 452.554321,278.924683
	C464.573608,289.631378 476.137024,299.932007 488.046509,310.540924
	C492.150970,306.034241 495.813019,302.013306 499.965820,297.494781
z"/>
<!-- medium cogwheel body -->
<path fill="#02AB90" opacity="1.000000" stroke="none"
	d="
M773.829712,378.828491
	C766.804443,388.778656 759.923523,398.392181 753.197937,408.113220
	C751.764587,410.184967 750.481873,410.813995 747.907410,410.130829
	C734.892334,406.677094 721.842224,403.340912 708.733154,400.267090
	C705.717834,399.560059 705.169128,398.143677 705.129639,395.473969
	C704.912781,380.814850 704.480103,366.158691 704.321594,351.499298
	C704.289246,348.510773 703.278503,346.704681 700.860413,344.970123
	C690.577332,337.593781 680.538818,329.874420 670.198914,322.581116
	C668.343079,321.272095 665.327271,320.548431 663.118347,320.971405
	C649.075012,323.660553 635.089355,326.663818 621.127991,329.759064
	C617.433899,330.578033 615.236389,330.168274 613.298523,326.319824
	C607.615234,315.033020 601.470154,303.974060 595.310486,292.934937
	C593.650391,289.959778 593.559875,287.890076 595.883606,285.056061
	C604.753357,274.238556 613.233337,263.102448 622.013306,252.209778
	C624.140015,249.571335 624.924683,247.175308 624.376404,243.649826
	C622.612244,232.306763 621.533569,220.857925 619.835388,209.503021
	C619.515747,207.365814 618.028198,204.827133 616.287598,203.570984
	C603.868408,194.608231 591.297241,185.851730 578.639343,177.227844
	C576.124207,175.514252 575.557983,173.891449 576.342346,171.057220
	C579.711792,158.881287 582.976929,146.674667 586.092529,134.431534
	C586.872559,131.366287 588.292725,130.237198 591.509766,130.057388
	C606.474487,129.220978 621.431580,128.197693 636.366760,126.946808
	C638.284058,126.786224 640.664612,125.339386 641.799438,123.751495
	C649.736511,112.646118 657.517944,101.423256 665.043335,90.035881
	C666.330322,88.088493 666.926147,85.038475 666.524109,82.726921
	C664.130432,68.964844 661.453308,55.248550 658.608704,41.571522
	C658.060669,38.936813 658.583984,37.603878 660.839294,36.404106
	C672.992676,29.939001 685.051575,23.292643 697.299011,17.012943
	C698.650391,16.320023 701.464355,16.958906 702.804443,18.002119
	C714.895508,27.414671 726.732605,37.154297 738.857422,46.521950
	C740.661194,47.915577 743.663696,48.633148 745.959656,48.364483
	C756.532349,47.127285 767.039917,45.344650 777.595703,43.945293
	C781.099731,43.480770 783.559570,42.203674 785.660339,39.110809
	C793.424011,27.680958 801.652100,16.566988 809.440857,5.153614
	C811.507751,2.124859 813.385315,1.631141 816.849976,2.566804
	C830.460449,6.242389 844.175354,9.531315 858.994873,13.250779
	C858.994873,29.035061 859.071716,44.683147 858.929932,60.329258
	C858.901672,63.452480 859.730225,65.462097 862.381287,67.347977
	C872.828735,74.780029 882.999268,82.602112 893.468689,90.001953
	C895.229797,91.246719 898.114685,91.913635 900.216370,91.501495
	C914.736694,88.654121 929.204041,85.525467 943.646118,82.298325
	C946.641602,81.628975 948.059387,82.477478 949.452209,85.124481
	C955.725952,97.047646 962.172974,108.880974 968.691895,120.672447
	C969.920837,122.895432 969.763733,124.358688 968.153259,126.358093
	C959.168518,137.512466 950.436584,148.870956 941.417847,159.997238
	C939.237183,162.687439 938.484314,165.271759 938.955383,168.652557
	C940.540466,180.026733 941.739014,191.457413 943.498352,202.802460
	C943.848755,205.061859 945.555359,207.687851 947.432373,209.040970
	C960.664795,218.580246 974.105286,227.830978 987.905396,237.471497
	C984.130920,251.638107 980.386719,265.896637 976.419556,280.092834
	C976.169861,280.986267 974.215271,281.863220 972.994141,281.955200
	C958.047729,283.080475 943.095337,284.145935 928.131531,285.000916
	C925.009949,285.179260 922.962097,286.111603 921.173035,288.776611
	C913.564087,300.111053 905.647827,311.239594 898.077820,322.599335
	C896.957886,324.279877 896.405762,326.918030 896.757507,328.906860
	C899.189697,342.662598 901.869263,356.376129 904.624817,370.071930
	C905.183960,372.850616 905.005432,374.687073 902.171509,376.173431
	C890.119934,382.494324 878.234070,389.134583 866.109192,395.307373
	C864.670959,396.039520 861.653931,395.236359 860.185120,394.094635
	C848.350525,384.895538 836.795044,375.336670 824.929321,366.179138
	C822.996643,364.687561 819.865295,363.793030 817.444214,364.056671
	C807.193115,365.173035 797.017456,366.964417 786.779602,368.228455
	C782.360107,368.774139 778.905090,370.225403 776.892090,374.445801
	C776.186218,375.925720 774.997681,377.175415 773.829712,378.828491
M680.134216,263.316864
	C688.958069,279.548645 701.084778,292.877045 716.377075,303.113037
	C739.143921,318.352203 764.036377,325.657104 791.737732,323.190857
	C806.354187,321.889587 820.286133,318.579590 833.343750,312.192078
	C860.611511,298.853363 880.186951,277.955658 891.455322,249.779785
	C900.019592,228.365112 902.109436,206.123154 897.269592,183.402786
	C891.605347,156.812119 878.671570,134.631821 857.708923,117.099396
	C829.630188,93.615387 797.164673,85.676804 761.704468,91.551056
	C734.142334,96.116951 711.111084,109.878197 692.907349,131.494736
	C677.766907,149.473709 668.688171,170.209259 666.294373,193.275436
	C663.781128,217.491898 667.382019,241.071976 680.134216,263.316864
z"/>
<!-- small cogwheel body -->
<path fill="#02AB90" opacity="1.000000" stroke="none"
	d="
M871.015259,489.781647
	C875.178284,498.157471 879.192017,506.168396 883.292236,514.351929
	C875.677002,521.206360 868.137878,527.760437 860.934387,534.664795
	C859.427490,536.109009 858.398132,538.867188 858.458252,540.982666
	C858.666260,548.298706 859.190613,555.633423 860.164856,562.884460
	C860.492493,565.322815 861.994263,568.166870 863.871216,569.731873
	C870.517151,575.273376 877.496460,580.425171 884.483582,585.541443
	C886.710999,587.172546 887.393921,588.533997 886.244385,591.296814
	C883.180664,598.660645 880.397644,606.147644 877.728149,613.665588
	C876.803650,616.269348 875.456482,617.180298 872.682068,617.234192
	C864.022278,617.402222 855.354614,617.717712 846.722900,618.395020
	C844.513672,618.568359 841.937927,619.806702 840.372803,621.388855
	C835.457092,626.357788 830.762817,631.578796 826.379700,637.021851
	C825.026672,638.702026 824.249390,641.454590 824.402222,643.632324
	C825.031616,652.597046 826.023315,661.541199 827.095459,670.467224
	C827.444702,673.375000 826.708923,674.949036 823.910400,676.191162
	C817.073242,679.225830 810.347412,682.529846 803.700317,685.964600
	C801.163452,687.275391 799.648499,686.875183 797.722168,684.834961
	C791.545837,678.293701 785.269226,671.831665 778.721680,665.667847
	C777.198364,664.233826 774.399536,663.360657 772.273376,663.503784
	C764.639893,664.017700 757.059265,665.319824 749.425598,665.823669
	C745.887695,666.057129 743.655457,667.386230 741.600586,670.131470
	C736.911194,676.396301 731.813110,682.355896 727.141479,688.633301
	C725.357605,691.030273 723.606323,691.795044 720.860840,690.715820
	C713.292480,687.740845 705.620911,685.009216 698.176880,681.754211
	C696.746704,681.128845 695.429810,678.606140 695.318237,676.877502
	C694.728210,667.736450 694.709778,658.558044 694.088623,649.420044
	C693.941162,647.251282 692.621338,644.863037 691.162659,643.154907
	C689.130554,640.775269 686.460632,638.940186 684.062683,636.873230
	C673.226746,627.533020 673.229065,627.553040 658.830933,629.299988
	C654.037964,629.881592 649.219116,630.255188 644.431580,630.874390
	C641.867004,631.206116 640.195312,630.798828 638.942688,628.094238
	C635.518494,620.701233 631.720886,613.481384 628.078125,606.189392
	C627.709106,605.450684 627.387390,604.688354 626.838806,603.489014
	C634.175659,596.878906 641.461487,590.099854 649.014038,583.632324
	C651.507690,581.496948 652.073669,579.310425 651.763062,576.255981
	C651.021912,568.967468 650.745239,561.628479 649.876648,554.358215
	C649.635925,552.342712 648.439697,549.930908 646.892334,548.669556
	C639.924500,542.989685 632.747192,537.555847 625.480042,532.260254
	C623.150940,530.563110 622.764343,529.129578 623.859558,526.475586
	C626.902466,519.102173 629.459290,511.526093 632.584595,504.190460
	C633.226562,502.683655 635.434753,501.017212 637.040771,500.885590
	C645.835876,500.164734 654.686462,500.107727 663.475464,499.337036
	C665.798645,499.133331 668.434509,497.676086 670.123901,495.989990
	C674.715759,491.407104 678.719177,486.237122 683.275024,481.614319
	C685.660156,479.194061 686.170166,476.742035 685.784912,473.557800
	C684.725037,464.798553 684.008972,455.997406 682.925659,447.241486
	C682.552612,444.226105 683.622253,442.821259 686.298706,441.619751
	C692.971924,438.623932 699.551025,435.401703 706.050110,432.042450
	C708.694214,430.675781 710.387268,430.888489 712.500427,433.143311
	C718.651672,439.706848 724.970032,446.127228 731.497253,452.314331
	C732.907715,453.651306 735.513916,454.471680 737.488525,454.337769
	C745.456848,453.797424 753.425598,453.004364 761.322205,451.823792
	C763.649109,451.475952 766.305603,450.031189 767.835693,448.250885
	C773.260071,441.939606 778.363403,435.341644 783.366516,428.685486
	C784.952576,426.575348 786.444214,426.125153 788.780090,427.043976
	C796.500366,430.080688 804.328979,432.859161 811.932129,436.160339
	C813.348511,436.775299 814.640686,439.305908 814.749878,441.030914
	C815.338684,450.339386 815.406860,459.680542 815.978455,468.990570
	C816.093140,470.858978 817.240234,472.988159 818.557922,474.388885
	C821.056396,477.044861 824.467224,478.907074 826.710449,481.726501
	C833.038513,489.679901 841.124023,490.391449 850.263855,488.718475
	C855.488586,487.762115 860.844238,487.354889 866.157959,487.156311
	C867.697021,487.098785 869.295044,488.619476 871.015259,489.781647
M680.001099,573.381775
	C683.294312,591.424133 691.207153,606.787170 705.266113,618.987793
	C718.734497,630.675842 734.339233,637.296021 751.888306,637.791321
	C777.845581,638.523987 799.496216,628.721558 815.580994,607.897095
	C834.194458,583.798889 836.208801,551.513611 822.823242,527.109802
	C807.762878,499.652496 784.249268,485.311157 752.408630,486.006256
	C733.484192,486.419403 717.009216,493.366241 703.385620,506.260376
	C684.407776,524.222107 676.532471,546.436279 680.001099,573.381775
z"/>
<!-- stopwatch casing in large cogwheel -->
<path fill="#03AB91" opacity="1.000000" stroke="none"
	d="
M495.231750,537.197876
	C480.861267,560.678650 462.449432,579.947266 440.067596,595.157715
	C415.988495,611.521606 389.563568,622.540344 360.434662,625.930725
	C349.093445,627.250793 337.609772,627.904236 326.191925,627.893311
	C302.307770,627.870544 279.558350,622.037781 257.633667,612.830139
	C233.049698,602.505798 211.730850,587.327087 193.614655,567.927368
	C169.136398,541.714844 153.080933,510.845612 146.187317,475.613434
	C143.782166,463.321075 142.165695,450.630981 142.257111,438.137665
	C142.574310,394.787109 155.770325,355.513184 182.451889,321.145203
	C205.914047,290.924072 236.017700,269.860199 272.192993,257.408936
	C296.929169,248.894943 322.523102,246.099792 348.334351,248.242401
	C387.523346,251.495499 422.790344,265.497223 453.264404,290.746887
	C486.922729,318.634857 508.792877,353.854309 518.653076,396.464661
	C522.800903,414.389252 524.143250,432.644806 522.803833,450.900726
	C520.547485,481.653839 511.612152,510.478851 495.231750,537.197876
M167.919479,385.490173
	C159.069168,413.345642 157.486664,441.633179 162.853577,470.339355
	C180.383469,564.101868 272.867950,626.617554 366.072083,607.701416
	C461.049255,588.425415 520.994202,498.102997 502.091156,402.753876
	C483.383362,308.389648 386.691254,246.429550 293.278290,269.720032
	C231.000305,285.247681 189.548676,324.311798 167.919479,385.490173
z"/>
<!-- crown on stopwatch in large cogwheel -->
<path fill="#01AA90" opacity="1.000000" stroke="none"
	d="
M333.954437,240.041962
	C327.180084,240.042099 320.899841,240.042099 314.034241,240.042099
	C314.034241,231.505676 314.034241,223.600922 314.034241,215.100067
	C304.547394,215.100067 295.642395,215.100067 286.050476,215.100067
	C286.050476,206.079025 285.925415,197.642563 286.255554,189.223938
	C286.286560,188.434418 289.185455,187.132874 290.759705,187.122604
	C312.251007,186.982269 333.743561,187.027466 355.235779,187.027588
	C359.900757,187.027618 364.569489,187.143005 369.229340,186.989197
	C372.027252,186.896835 373.069794,187.906784 373.011688,190.737701
	C372.871582,197.565689 372.832062,204.402298 373.025024,211.227707
	C373.117615,214.501678 371.617859,215.101944 368.801544,215.051956
	C361.639740,214.924820 354.470520,215.143250 347.311737,214.949326
	C344.085693,214.861938 342.830536,215.850388 342.982605,219.184799
	C343.210083,224.172592 342.706787,229.207367 343.135101,234.168564
	C343.566193,239.161713 341.612823,240.800613 336.944763,240.059250
	C336.132263,239.930191 335.281586,240.041519 333.954437,240.041962
z"/>
<!-- knob on stopwatch in large cogwheel -->
<path fill="#01AA90" opacity="1.000000" stroke="none"
	d="
M499.720459,297.743591
	C495.813019,302.013306 492.150970,306.034241 488.046509,310.540924
	C476.137024,299.932007 464.573608,289.631378 452.554321,278.924683
	C457.697296,273.059662 462.562164,267.511780 467.800629,261.537872
	C479.748779,272.218018 491.317352,282.558899 503.172211,293.155670
	C501.876862,294.908630 500.921326,296.201691 499.720459,297.743591
z"/>
<!-- inner circle in medium cogwheel -->
<path fill="#0278B9" opacity="1.000000" stroke="none"
	d="
M679.981079,262.980499
	C667.382019,241.071976 663.781128,217.491898 666.294373,193.275436
	C668.688171,170.209259 677.766907,149.473709 692.907349,131.494736
	C711.111084,109.878197 734.142334,96.116951 761.704468,91.551056
	C797.164673,85.676804 829.630188,93.615387 857.708923,117.099396
	C878.671570,134.631821 891.605347,156.812119 897.269592,183.402786
	C902.109436,206.123154 900.019592,228.365112 891.455322,249.779785
	C880.186951,277.955658 860.611511,298.853363 833.343750,312.192078
	C820.286133,318.579590 806.354187,321.889587 791.737732,323.190857
	C764.036377,325.657104 739.143921,318.352203 716.377075,303.113037
	C701.084778,292.877045 688.958069,279.548645 679.981079,262.980499
M710.821411,277.678101
	C734.743591,301.045868 763.432251,311.165558 796.496765,306.665131
	C853.183594,298.949371 891.111084,246.737259 882.120117,189.813599
	C873.470154,135.048553 819.045715,96.572571 764.651123,107.414864
	C725.677673,115.183327 698.706787,138.184021 686.647156,176.014221
	C674.602539,213.797882 683.248840,247.939972 710.821411,277.678101
z"/>
<!-- inner circle in small cogwheel -->
<path fill="#0278B9" opacity="1.000000" stroke="none"
	d="
M679.996338,572.935364
	C676.532471,546.436279 684.407776,524.222107 703.385620,506.260376
	C717.009216,493.366241 733.484192,486.419403 752.408630,486.006256
	C784.249268,485.311157 807.762878,499.652496 822.823242,527.109802
	C836.208801,551.513611 834.194458,583.798889 815.580994,607.897095
	C799.496216,628.721558 777.845581,638.523987 751.888306,637.791321
	C734.339233,637.296021 718.734497,630.675842 705.266113,618.987793
	C691.207153,606.787170 683.294312,591.424133 679.996338,572.935364
M797.058655,606.575378
	C813.553406,590.348999 819.672913,570.826599 814.928101,548.216431
	C808.821777,519.117920 781.363342,498.757080 751.400940,500.691986
	C721.318237,502.634644 696.732117,526.226135 694.098938,555.675903
	C691.821228,581.149658 704.781128,604.829834 727.282532,616.308350
	C750.272522,628.036072 776.678345,624.510132 797.058655,606.575378
z"/>
<!-- stopwatch in large cogwheel-->
<path fill="#FEFFFF" opacity="1.000000" stroke="none"
	d="
M168.004181,385.100464
	C189.548676,324.311798 231.000305,285.247681 293.278290,269.720032
	C386.691254,246.429550 483.383362,308.389648 502.091156,402.753876
	C520.994202,498.102997 461.049255,588.425415 366.072083,607.701416
	C272.867950,626.617554 180.383469,564.101868 162.853577,470.339355
	C157.486664,441.633179 159.069168,413.345642 168.004181,385.100464
M467.221130,486.365784
	C484.711792,436.171143 477.680878,389.681183 444.119080,348.445282
	C415.815369,313.669769 378.051971,297.843597 332.809814,297.875977
	C332.809814,339.323486 332.809814,380.097687 332.090363,420.850006
	C324.050323,420.251282 318.775604,422.870453 315.891479,428.893646
	C313.300171,434.305328 314.289612,440.779907 318.374969,445.144928
	C322.920593,450.001831 328.884338,450.821960 336.245331,448.078278
	C337.822937,447.490265 340.085815,447.800659 341.725677,448.460724
	C367.327423,458.766174 392.887238,469.176147 418.438202,479.607300
	C433.141327,485.609833 447.811310,491.693573 463.052124,497.969727
	C464.400085,494.113373 465.638763,490.569733 467.221130,486.365784
z"/>
<!-- hole in medium cogwheel-->
<path fill="#FEFFFF" opacity="1.000000" stroke="none"
	d="
M710.572632,277.425110
	C683.248840,247.939972 674.602539,213.797882 686.647156,176.014221
	C698.706787,138.184021 725.677673,115.183327 764.651123,107.414864
	C819.045715,96.572571 873.470154,135.048553 882.120117,189.813599
	C891.111084,246.737259 853.183594,298.949371 796.496765,306.665131
	C763.432251,311.165558 734.743591,301.045868 710.572632,277.425110
z"/>
<!-- hole in small cogwheel-->
<path fill="#FEFEFF" opacity="1.000000" stroke="none"
	d="
M796.800171,606.817749
	C776.678345,624.510132 750.272522,628.036072 727.282532,616.308350
	C704.781128,604.829834 691.821228,581.149658 694.098938,555.675903
	C696.732117,526.226135 721.318237,502.634644 751.400940,500.691986
	C781.363342,498.757080 808.821777,519.117920 814.928101,548.216431
	C819.672913,570.826599 813.553406,590.348999 796.800171,606.817749
z"/>
<!-- elapsed time in large cogwheel-->
<path fill="#01AB90" opacity="1.000000" stroke="none"
	d="
M332.809814,420.871857
	C332.809814,380.097687 332.809814,339.323486 332.809814,297.875977
	C378.051971,297.843597 415.815369,313.669769 444.119080,348.445282
	C477.680878,389.681183 484.711792,436.171143 466.691895,486.642151
	C443.075104,477.561920 419.985687,468.209839 396.900635,458.847107
	C380.585754,452.230194 364.251312,445.659760 348.004211,438.880280
	C346.369629,438.198242 344.342407,436.359497 344.097504,434.805420
	C342.999268,427.834900 339.301422,423.306732 332.809814,420.871857
z"/>
<!-- stopwatch's hand in large cogwheel-->
<path fill="#0479B9" opacity="1.000000" stroke="none"
	d="
M332.450073,420.860931
	C339.301422,423.306732 342.999268,427.834900 344.097504,434.805420
	C344.342407,436.359497 346.369629,438.198242 348.004211,438.880280
	C364.251312,445.659760 380.585754,452.230194 396.900635,458.847107
	C419.985687,468.209839 443.075104,477.561920 466.520020,486.972321
	C465.638763,490.569733 464.400085,494.113373 463.052124,497.969727
	C447.811310,491.693573 433.141327,485.609833 418.438202,479.607300
	C392.887238,469.176147 367.327423,458.766174 341.725677,448.460724
	C340.085815,447.800659 337.822937,447.490265 336.245331,448.078278
	C328.884338,450.821960 322.920593,450.001831 318.374969,445.144928
	C314.289612,440.779907 313.300171,434.305328 315.891479,428.893646
	C318.775604,422.870453 324.050323,420.251282 332.450073,420.860931
M336.991669,435.426483
	C337.115723,430.997162 334.153656,428.404510 330.622223,427.656464
	C328.443176,427.194916 325.366852,428.814667 323.331146,430.347229
	C320.439972,432.523834 320.175568,436.218201 322.292053,438.809875
	C323.935822,440.822601 326.956116,442.543182 329.516754,442.785431
	C333.643036,443.175812 336.089722,440.253998 336.991669,435.426483
z"/>
<!-- stopwatch's center in large cogwheel-->
<path fill="#01A991" opacity="1.000000" stroke="none"
	d="
M336.975769,435.820251
	C336.089722,440.253998 333.643036,443.175812 329.516754,442.785431
	C326.956116,442.543182 323.935822,440.822601 322.292053,438.809875
	C320.175568,436.218201 320.439972,432.523834 323.331146,430.347229
	C325.366852,428.814667 328.443176,427.194916 330.622223,427.656464
	C334.153656,428.404510 337.115723,430.997162 336.975769,435.820251
z"/>
</svg>
