<svg version="1.1" id="Layer_1" xmlns="http://www.w3.org/2000/svg" xmlns:xlink="http://www.w3.org/1999/xlink" x="0px" y="0px"
	 width="100%" viewBox="0 0 1000 1000" enable-background="new 0 0 1000 1000" xml:space="preserve">
<path fill="#02AB90" opacity="1.000000" stroke="none"
	d="
M1.000000,869.468628
	C1.545195,867.000427 2.206316,865.024353 2.617356,862.997559
	C6.063820,846.003845 16.323362,836.670959 33.697865,836.068542
	C50.006741,835.502991 66.346985,835.811279 82.673492,835.792542
	C107.664917,835.763916 132.661240,836.070496 157.645538,835.647400
	C168.000275,835.472046 174.369476,842.875793 174.803696,851.858337
	C175.148315,858.987610 174.873108,866.146851 174.873108,874.002991
	C172.941406,874.002991 171.186371,873.995117 169.431427,874.004150
	C127.949280,874.217957 86.467133,874.434631 44.984974,874.648010
	C35.576668,874.696411 32.954151,878.391418 35.509216,887.700378
	C36.500996,891.313782 39.195316,890.950317 41.862057,890.925415
	C64.017761,890.718140 86.173195,890.390503 108.329208,890.345581
	C120.476410,890.320984 132.670349,890.192017 144.761368,891.146790
	C162.006866,892.508667 172.424332,902.458191 173.944839,919.726257
	C174.989212,931.586853 174.948822,943.724426 173.707672,955.561462
	C171.946533,972.357727 159.573044,982.351868 140.957718,982.917603
	C124.144806,983.428589 107.307922,983.185242 90.481506,983.209351
	C66.656372,983.243530 42.831139,983.227295 19.005955,983.213013
	C9.461110,983.207336 5.103931,980.202026 1.311100,971.161133
	C1.000000,962.645752 1.000000,954.291504 1.467910,945.497375
	C43.098495,945.060791 84.261169,945.064087 125.423843,945.067261
	C128.256897,945.067444 131.093689,944.973572 133.922180,945.087036
	C138.583618,945.273987 139.347443,942.096985 138.720932,938.799622
	C137.944382,934.712830 142.131775,928.521667 134.297333,927.090820
	C133.812973,927.002319 133.299500,927.070923 132.799576,927.070374
	C131.633026,927.069153 130.466461,927.071167 129.299911,927.070618
	C97.969765,927.056091 66.636635,927.298035 35.310555,926.933655
	C15.573784,926.704102 4.592177,917.332214 1.994722,900.514038
	C1.910872,899.971069 1.342502,899.502991 1.000000,899.000000
	C1.000000,889.312439 1.000000,879.624878 1.000000,869.468628
z"/>
<path fill="#0177B9" opacity="1.000000" stroke="none"
	d="
M412.939575,679.929810
	C398.919769,683.034607 392.686005,692.249878 388.734131,705.185364
	C383.158569,723.435669 375.778717,741.139282 368.970551,759.000488
	C368.367432,760.582825 366.304596,762.708557 364.901672,762.722229
	C341.254181,762.952209 317.603821,762.886719 293.097534,762.886719
	C291.611633,757.873291 289.805206,751.899109 288.070862,745.904114
	C282.665894,727.220581 277.244080,708.541626 271.943695,689.828430
	C271.070190,686.744324 269.680206,684.856567 266.458038,683.619934
	C246.437927,675.936768 226.500275,668.035767 206.604431,660.034973
	C203.515366,658.792786 201.109085,659.038147 198.189133,660.538513
	C176.445251,671.712097 154.584000,682.657288 132.838791,693.828369
	C129.965347,695.304504 128.266541,695.014038 126.067017,692.653259
	C110.847137,676.317810 95.528519,660.073303 80.112816,643.922546
	C77.930275,641.635986 77.677216,639.831909 78.934532,636.959045
	C88.599335,614.875916 98.165184,592.747986 107.505005,570.526123
	C108.462471,568.248047 108.560966,564.933899 107.657784,562.655579
	C100.306877,544.112732 92.711403,525.664368 84.916977,507.303284
	C84.027954,505.209045 81.750511,503.033386 79.616982,502.240601
	C54.545204,492.923828 29.377874,483.864227 4.158634,474.708832
	C4.158634,450.544312 4.158634,426.574554 4.158634,402.253113
	C20.922569,396.512787 37.714180,390.757385 54.509926,385.014099
	C62.530796,382.271393 70.638016,379.753723 78.532303,376.686676
	C80.643044,375.866638 82.979889,373.718903 83.745293,371.640228
	C91.671333,350.115143 99.376869,328.507111 106.881622,306.831390
	C107.632896,304.661499 107.370834,301.554840 106.373207,299.456085
	C96.450958,278.581848 86.304672,257.813629 76.133247,237.058792
	C74.847275,234.434769 74.582169,232.601730 76.764664,230.021133
	C91.573090,212.511551 109.113075,197.945969 126.661148,183.402908
	C127.934128,182.347931 131.048553,182.435425 132.789734,183.188049
	C155.985428,193.214462 179.055603,203.531616 202.267502,213.519638
	C204.527878,214.492294 207.876099,214.618042 210.117233,213.687210
	C227.465088,206.481949 244.623352,198.821182 261.946991,191.555801
	C265.204254,190.189758 266.838959,188.200104 268.000122,185.021072
	C276.154938,162.694794 284.480682,140.430969 292.702362,118.128967
	C293.529846,115.884369 294.061493,114.052689 297.257690,114.029922
	C320.416260,113.864975 343.573242,113.479774 366.730927,113.178185
	C367.214752,113.171883 367.700775,113.332397 368.611633,113.487709
	C373.021729,128.640091 377.482391,143.917419 381.912140,159.203720
	C384.688324,168.783951 387.255707,178.429733 390.300690,187.922943
	C390.938110,189.910202 392.936371,192.153580 394.853973,192.930923
	C415.035675,201.111816 435.291046,209.116943 455.643463,216.862122
	C457.880005,217.713257 461.234497,217.418030 463.419037,216.337479
	C485.181519,205.572952 506.854706,194.623749 528.423096,183.475128
	C531.906677,181.674484 533.759705,182.132797 536.352051,184.929443
	C551.303589,201.059143 566.405090,217.052124 581.639648,232.914810
	C584.050110,235.424667 584.106689,237.356842 582.812439,240.315460
	C573.217651,262.248627 563.683960,284.210175 554.418274,306.283356
	C553.406982,308.692444 553.360474,312.203735 554.318115,314.631104
	C561.516296,332.877106 569.136475,350.956177 576.469666,369.149933
	C577.677673,372.146973 579.307678,373.916473 582.465454,375.043732
	C606.260986,383.538239 629.956116,392.313812 653.748230,400.817871
	C656.877441,401.936371 658.061401,403.249329 658.029175,406.737579
	C657.833313,427.898346 657.844910,449.062531 658.018921,470.223694
	C658.046936,473.619293 657.087585,475.069183 653.818787,476.162689
	C630.490234,483.966644 607.261292,492.068115 583.944702,499.908569
	C580.662292,501.012360 578.856262,502.607941 577.670105,506.016754
	C570.351074,527.051331 562.778442,547.998474 555.154846,568.925476
	C553.934875,572.274109 553.986511,575.032715 555.629578,578.346191
	C565.749634,598.754333 575.531006,619.330322 585.635681,639.746216
	C587.222473,642.952271 587.025879,644.947266 584.515015,647.516541
	C578.112549,654.067749 572.427429,661.361938 565.718628,667.561768
	C555.795166,676.732239 545.310608,685.306396 534.838379,693.856995
	C533.672668,694.808777 530.769653,694.564209 529.117004,693.848145
	C505.930023,683.801514 482.795410,673.632263 459.722321,663.326477
	C456.705780,661.979187 454.264618,661.961914 451.261993,663.304810
	C438.667297,668.937805 425.963318,674.326294 412.939575,679.929810
M227.683517,279.165039
	C210.439651,290.728882 195.259689,304.526611 182.544342,320.974060
	C155.809921,355.555389 142.518723,394.894196 142.253677,438.422394
	C142.178589,450.751923 143.810257,463.265747 146.163666,475.403351
	C153.033524,510.834564 169.151215,541.840332 193.817093,568.140259
	C211.977142,587.503357 233.352585,602.552979 257.894775,612.980408
	C277.612701,621.358032 298.163544,626.555298 319.477295,627.811035
	C335.202972,628.737549 350.942017,628.040833 366.621063,625.207764
	C393.067657,620.429077 417.384369,610.557373 439.474854,595.562073
	C461.992371,580.276978 480.564941,560.974548 494.916473,537.678528
	C511.635437,510.539673 520.835022,481.016632 522.865845,449.342316
	C523.854431,433.922607 522.938538,418.488495 520.007629,403.220520
	C513.470947,369.168793 499.147644,338.829712 476.194244,312.857208
	C457.942017,292.204254 436.436646,275.718384 411.051788,264.436584
	C390.826141,255.447662 369.747406,249.494797 347.759918,248.294861
	C333.252533,247.503143 318.498444,248.419266 304.040558,250.135574
	C276.552246,253.398727 251.439346,263.658356 227.683517,279.165039
M303.501282,187.030121
	C298.842102,187.031647 294.177155,186.907547 289.527802,187.122101
	C288.348907,187.176498 286.234680,188.283310 286.217072,188.950531
	C285.990997,197.513550 286.067780,206.084579 286.067780,215.227814
	C295.778259,215.227814 304.673767,215.227814 314.000305,215.227814
	C314.000305,222.610992 314.080933,229.407272 313.960205,236.199966
	C313.912567,238.879868 314.656860,240.144211 317.596405,240.085907
	C324.915070,239.940765 332.239441,239.970215 339.559570,240.071304
	C342.132538,240.106827 343.134033,239.153885 343.072083,236.568390
	C342.952545,231.579315 343.037567,226.585327 343.040527,221.593369
	C343.044403,215.015533 343.045502,215.013428 349.382965,215.010834
	C355.539703,215.008316 361.711853,214.745407 367.847961,215.101303
	C372.170105,215.351974 373.263611,213.714798 373.045135,209.687851
	C372.739075,204.046921 372.744598,198.365158 373.041534,192.723206
	C373.268524,188.410065 371.850159,186.901932 367.398590,186.943390
	C346.434174,187.138687 325.466919,187.030258 303.501282,187.030121
M496.980957,287.487488
	C487.334686,278.955292 477.688416,270.423065 467.848389,261.719482
	C463.128845,266.856964 458.614563,271.489868 454.531097,276.475647
	C453.797852,277.370880 454.214386,280.373047 455.169159,281.293793
	C460.775543,286.700134 466.667969,291.813141 472.525269,296.955139
	C477.595367,301.406097 482.747040,305.764160 488.214325,310.465668
	C493.386230,304.657227 498.186279,299.266418 503.690125,293.085205
	C501.331299,291.145844 499.409637,289.565918 496.980957,287.487488
z"/>
<path fill="#02AB90" opacity="1.000000" stroke="none"
	d="
M902.995361,361.997894
	C905.518372,373.976501 905.702820,374.296631 895.602356,380.116272
	C885.974609,385.663513 875.967590,390.572723 865.960999,395.419067
	C864.587463,396.084290 861.804077,395.344086 860.435120,394.277222
	C848.609741,385.061279 836.925354,375.662781 825.283508,366.214355
	C822.838440,364.229980 820.613525,363.221954 817.214050,363.820801
	C806.564941,365.696930 795.850891,367.263123 785.114319,368.551636
	C781.555359,368.978760 779.546265,370.612366 777.636292,373.374146
	C769.774414,384.742249 761.625854,395.912933 753.826660,407.322906
	C751.900513,410.140808 750.052368,410.789642 746.849487,409.936096
	C734.477905,406.638916 722.074280,403.447052 709.612854,400.512115
	C706.250732,399.720306 705.086975,398.424774 705.067383,394.889984
	C704.987183,380.395050 704.673279,365.897552 704.120056,351.413422
	C704.040405,349.329620 702.703125,346.640167 701.064575,345.376251
	C690.780029,337.443146 680.309509,329.744202 669.724854,322.214691
	C668.110962,321.066589 665.443787,320.476196 663.504333,320.856049
	C649.305298,323.637360 635.143677,326.625580 621.026306,329.797974
	C617.201721,330.657440 615.147644,329.960114 613.251770,326.217041
	C607.465210,314.792114 601.265869,303.571808 595.025635,292.384308
	C593.494263,289.638916 593.694214,287.844604 595.687988,285.382507
	C604.808167,274.120056 613.779907,262.732971 622.555786,251.200989
	C623.854248,249.494705 624.515442,246.700714 624.286377,244.535263
	C623.061340,232.949783 621.612793,221.380844 619.859680,209.864304
	C619.510925,207.573822 618.008789,204.833679 616.169312,203.497131
	C604.450378,194.982178 592.588013,186.652695 580.547546,178.598984
	C576.701416,176.026337 575.397034,173.710556 576.841125,168.971313
	C580.328308,157.526855 583.181763,145.886185 586.144043,134.287155
	C586.859985,131.483658 588.100098,130.261322 591.160461,130.086044
	C606.127075,129.228790 621.088684,128.230026 636.024902,126.960777
	C638.089600,126.785316 640.665222,125.300133 641.878296,123.612083
	C649.747925,112.661148 657.434998,101.571198 664.848755,90.307526
	C666.213989,88.233261 666.887573,85.015610 666.467407,82.568306
	C664.103333,68.798973 661.226501,55.118202 658.779114,41.361942
	C658.524536,39.931229 659.488953,37.390835 660.655884,36.737633
	C672.812683,29.933235 685.075562,23.309967 697.471924,16.954216
	C698.794983,16.275885 701.597534,17.044916 702.960571,18.108133
	C715.044678,27.534462 726.891602,37.265327 738.999878,46.659687
	C740.697510,47.976826 743.518433,48.694176 745.669006,48.436012
	C756.240417,47.166946 766.747498,45.371124 777.307007,43.988441
	C780.993774,43.505692 783.584900,42.205254 785.791809,38.947388
	C793.635742,27.368156 801.792725,15.997964 810.014526,4.681846
	C810.964233,3.374788 813.300476,1.894441 814.593262,2.198429
	C828.990234,5.583859 843.308350,9.304968 858.991211,13.275660
	C858.991211,28.805935 859.068359,44.434132 858.928589,60.060390
	C858.899292,63.338776 859.740601,65.492203 862.564331,67.490730
	C873.030945,74.898506 883.202454,82.722946 893.659546,90.144630
	C895.306763,91.313652 898.003662,91.960388 899.965820,91.575867
	C914.326782,88.761642 928.646179,85.721230 942.924500,82.510826
	C946.146790,81.786301 947.932861,82.061424 949.612122,85.318985
	C955.709717,97.147507 962.096375,108.830597 968.577942,120.454788
	C969.948914,122.913666 969.712708,124.430382 967.994934,126.561050
	C959.003784,137.713531 950.079224,148.924835 941.416321,160.331955
	C939.897827,162.331406 938.855103,165.445724 939.094482,167.898514
	C940.242249,179.657333 941.760071,191.387817 943.520874,203.071915
	C943.839905,205.188965 945.469482,207.651306 947.236511,208.920914
	C960.612244,218.531494 974.173218,227.884293 987.922913,237.489746
	C983.952881,252.333679 980.015625,267.054932 976.061157,281.840515
	C959.897278,282.933136 944.122253,284.099609 928.331543,284.985870
	C925.003601,285.172668 922.885681,286.235382 921.011719,289.028778
	C913.497742,300.229340 905.648987,311.206024 898.191772,322.443207
	C897.000122,324.239044 896.477173,327.060089 896.838013,329.206696
	C898.657593,340.031250 900.872131,350.789429 902.995361,361.997894
M813.886780,319.532104
	C820.272827,317.169464 826.925415,315.347076 832.998596,312.350464
	C858.986145,299.527893 878.262512,280.062897 889.883179,253.321533
	C899.833984,230.422867 902.357178,206.740341 897.022278,182.322861
	C891.297302,156.119904 878.360291,134.251556 857.625122,117.041893
	C829.680542,93.848640 797.575195,85.676437 762.130493,91.610893
	C732.429749,96.583626 708.331848,111.524521 689.839417,135.526688
	C668.690979,162.976227 661.890869,193.988968 667.533569,227.623169
	C672.304565,256.061584 686.580200,279.372711 709.057922,297.642365
	C729.804443,314.504974 753.686401,323.173950 780.148376,323.702179
	C791.108459,323.920929 802.127258,321.202209 813.886780,319.532104
z"/>
<path fill="#02AB90" opacity="1.000000" stroke="none"
	d="
M650.425293,560.578796
	C651.242798,553.037231 648.046143,548.433167 642.117798,544.696167
	C636.224426,540.981262 630.989990,536.234436 625.331360,532.126404
	C623.226562,530.598389 622.724609,529.292053 623.766113,526.764099
	C626.867249,519.236328 629.483276,511.506378 632.676086,504.020599
	C633.305115,502.545624 635.598694,500.998505 637.236206,500.866333
	C646.031128,500.156281 654.876648,500.065674 663.668518,499.329681
	C665.851929,499.146881 668.348877,497.810516 669.927307,496.230652
	C674.395081,491.758881 678.256165,486.677582 682.758240,482.244598
	C685.744690,479.303894 686.137817,476.261963 685.627014,472.381378
	C684.519531,463.967194 683.930420,455.485962 682.921692,447.057007
	C682.588440,444.272522 683.472656,442.917053 686.021118,441.770142
	C692.842407,438.700256 699.596130,435.453217 706.208130,431.957825
	C709.026978,430.467621 710.629028,431.200653 712.610413,433.286011
	C718.691895,439.686493 724.829346,446.048187 731.251160,452.100159
	C732.769714,453.531219 735.533936,454.432129 737.645752,454.300720
	C745.447815,453.815247 753.253113,453.031097 760.976929,451.839325
	C763.454834,451.457001 766.288696,449.991638 767.917603,448.116516
	C773.373413,441.836060 778.253601,435.058319 783.621094,428.696167
	C784.568665,427.573059 787.089233,426.682526 788.387268,427.128479
	C796.383545,429.875854 804.297913,432.895142 812.080444,436.198914
	C813.401062,436.759521 814.646545,439.090912 814.743835,440.676727
	C815.304565,449.819122 815.320496,458.996735 815.967468,468.130798
	C816.130859,470.437958 817.511475,472.986786 819.068176,474.789581
	C821.330750,477.409698 824.674866,479.121521 826.827393,481.806244
	C833.020630,489.530884 840.824829,490.600525 849.905334,488.786926
	C855.268738,487.715729 860.809448,487.405731 866.289429,487.130981
	C867.718262,487.059387 869.955017,488.008820 870.566895,489.157288
	C874.937622,497.360565 878.983704,505.736755 883.280273,514.353333
	C875.771179,521.115112 868.440857,527.868896 860.916321,534.398926
	C858.637146,536.376892 857.970459,538.371033 858.286682,541.322693
	C859.066711,548.604370 859.270142,555.950867 860.156311,563.216248
	C860.420227,565.380249 861.684509,567.964050 863.338745,569.322205
	C870.285034,575.025269 877.495544,580.414734 884.738770,585.742981
	C886.854126,587.299072 887.323059,588.612793 886.293884,591.124817
	C883.206787,598.659607 880.588928,606.389099 877.401672,613.878174
	C876.776855,615.346375 874.483704,616.885376 872.852295,617.013000
	C864.553589,617.662292 856.221619,618.022827 847.896545,618.136841
	C844.233276,618.187012 841.670654,619.438049 839.357788,622.233582
	C835.324951,627.107788 831.132324,631.875977 826.685425,636.370789
	C824.270264,638.812012 823.939331,641.266968 824.329895,644.447815
	C825.404968,653.203308 826.084290,662.006958 827.114197,670.768738
	C827.436157,673.507935 826.697815,674.950195 824.093628,676.115295
	C817.266052,679.170044 810.514587,682.421204 803.895813,685.903931
	C801.108765,687.370605 799.542847,686.734497 797.531311,684.605347
	C791.468323,678.187866 785.318848,671.832520 778.857056,665.825195
	C777.227661,664.310486 774.256836,663.423279 771.984253,663.564575
	C764.350159,664.039062 756.768738,665.362976 749.134644,665.833740
	C745.717041,666.044495 743.676941,667.453308 741.747559,669.979187
	C736.996887,676.198669 731.945068,682.190369 727.267944,688.462708
	C725.384521,690.988586 723.580688,691.831421 720.586182,690.623718
	C713.199951,687.645020 705.665771,685.019043 698.373230,681.834106
	C696.902588,681.191772 695.442078,678.759460 695.331238,677.063904
	C694.723022,667.758850 694.685486,658.416626 694.087158,649.110657
	C693.957336,647.091003 692.787476,644.694641 691.316589,643.286621
	C686.628967,638.799500 681.735291,634.484192 676.575195,630.557129
	C674.709717,629.137451 671.820618,628.271301 669.476135,628.415283
	C661.174377,628.925232 652.898438,629.913574 644.629578,630.867249
	C641.856750,631.187012 640.149597,630.692322 638.821167,627.820435
	C635.060059,619.689941 630.886047,611.750488 626.772461,603.531555
	C634.338684,596.719666 641.872314,590.165100 649.076721,583.266724
	C650.594238,581.813721 651.626221,579.100342 651.628235,576.966553
	C651.633301,571.655273 650.915955,566.343323 650.425293,560.578796
M768.099365,636.816956
	C768.570984,636.652344 769.030762,636.429504 769.515808,636.331299
	C810.968201,627.938110 837.554138,589.903564 829.830627,548.366943
	C823.974426,516.872192 804.616455,496.448120 773.705200,488.272949
	C747.994690,481.473206 724.349060,487.537201 704.595398,505.180481
	C685.031494,522.654236 676.532410,544.983093 679.966003,571.362122
	C682.814880,593.248962 693.017517,610.894104 711.100586,623.610535
	C727.960388,635.466675 746.694702,640.213013 768.099365,636.816956
z"/>
<path fill="#0278BA" opacity="1.000000" stroke="none"
	d="
M627.630737,924.999878
	C627.630676,895.184265 627.630676,865.868652 627.630676,835.775391
	C633.940796,835.775391 640.034912,835.775269 646.128967,835.775452
	C649.461365,835.775513 652.804626,835.948425 656.123718,835.738403
	C662.034363,835.364441 665.728699,838.030212 668.404358,843.207764
	C683.828003,873.053345 699.405334,902.819458 714.934448,932.610535
	C716.008118,934.670227 717.112915,936.713623 718.575500,939.464722
	C719.653259,937.522400 720.507874,936.063232 721.287659,934.565063
	C736.951843,904.471375 752.698547,874.419922 768.188477,844.236633
	C771.311279,838.151611 775.475708,835.358521 782.407104,835.677246
	C791.349426,836.088379 800.324890,835.777405 809.530396,835.777405
	C809.655945,837.512024 809.830261,838.800049 809.830688,840.088013
	C809.845093,882.909180 809.906006,925.730530 809.724304,968.550964
	C809.709595,972.021484 808.654724,975.868591 806.883362,978.820801
	C805.642395,980.889038 802.425049,982.771545 799.973877,982.929565
	C792.027344,983.441833 784.027039,983.121033 775.382202,983.121033
	C775.382202,958.397644 775.382202,933.917725 775.382202,909.437805
	C775.028320,909.361511 774.674438,909.285156 774.320618,909.208862
	C773.558044,910.587891 772.765625,911.951355 772.037415,913.348328
	C762.275085,932.077759 752.397400,950.748901 742.837646,969.581238
	C739.748169,975.667358 735.550354,978.536377 728.593994,978.098450
	C721.623596,977.659607 714.593018,977.758911 707.609314,978.074890
	C701.448486,978.353638 697.648804,975.649658 694.923279,970.353882
	C684.877930,950.835449 674.680664,931.395142 664.535645,911.927917
	C663.997864,910.895935 663.415222,909.887268 662.175049,907.636536
	C662.175049,933.447937 662.175049,958.023071 662.175049,983.013123
	C653.115051,983.013123 644.663147,983.387390 636.265625,982.873840
	C631.167480,982.562073 627.707153,977.068604 627.666321,970.486816
	C627.573303,955.491699 627.633118,940.495605 627.630737,924.999878
z"/>
<path fill="#0178B9" opacity="1.000000" stroke="none"
	d="
M891.000000,983.223145
	C878.339417,983.222534 866.178711,983.248169 854.018188,983.212646
	C844.266113,983.184204 839.134827,978.039429 839.096558,967.932739
	C839.010193,945.111145 839.072571,922.289001 839.065979,899.467041
	C839.061401,883.641724 839.024902,867.816345 839.036072,851.991028
	C839.044067,840.695190 843.893066,835.781921 854.986450,835.780457
	C896.132629,835.775085 937.278748,835.773926 978.424927,835.780334
	C989.571350,835.782043 994.228943,840.340637 994.345642,851.439209
	C994.415588,858.093262 994.358521,864.748657 994.358521,871.920410
	C954.239563,871.920410 914.349731,871.920410 874.054321,871.920410
	C874.054321,879.140076 874.054321,885.854675 874.054321,893.206116
	C901.826111,893.206116 929.695435,893.206116 957.837036,893.206116
	C957.837036,904.083008 957.837036,914.335449 957.837036,925.251282
	C929.978516,925.251282 902.124207,925.251282 874.031616,925.251282
	C874.031616,933.027100 874.031616,940.148682 874.031616,947.796875
	C913.830566,947.796875 953.708008,947.796875 993.878784,947.796875
	C993.878784,956.704285 994.519043,965.161499 993.670349,973.466492
	C993.023865,979.793823 987.326050,983.192139 979.956116,983.202148
	C950.470764,983.242004 920.985352,983.221375 891.000000,983.223145
z"/>
<path fill="#03AC91" opacity="1.000000" stroke="none"
	d="
M225.980225,983.036072
	C221.652161,983.036011 217.820312,983.064087 213.988998,983.030090
	C205.622284,982.955933 200.270142,978.108032 199.378647,969.780151
	C199.237335,968.460083 199.274323,967.118103 199.274170,965.786255
	C199.269684,928.303162 199.262527,890.820129 199.276169,853.337036
	C199.280777,840.673523 204.170425,835.790588 216.769363,835.781067
	C223.257919,835.776123 229.746475,835.780151 236.710785,835.780151
	C236.710785,856.425903 236.710785,876.825073 236.710785,898.194641
	C238.535095,896.700378 239.657867,895.879578 240.668457,894.938416
	C259.928650,877.000488 279.224701,859.100647 298.383331,841.054871
	C302.143402,837.513245 306.226776,835.826538 311.378418,835.878784
	C325.467743,836.021667 339.559448,835.927979 355.135040,835.927979
	C352.888947,838.018555 351.616119,839.196777 350.350250,840.382446
	C328.953735,860.424683 307.537659,880.446045 286.178101,900.527649
	C281.476746,904.947693 281.192535,905.455627 286.047760,909.926819
	C301.845825,924.475403 317.879944,938.770447 333.957153,953.011902
	C341.310303,959.525269 348.988068,965.671509 356.495972,972.011047
	C360.833435,975.673462 361.050354,976.327087 360.373291,982.662781
	C359.709778,982.830261 358.948883,983.188416 358.187164,983.190063
	C343.860504,983.220825 329.515625,983.605774 315.218506,982.953552
	C311.183777,982.769470 306.662994,980.269653 303.431122,977.560303
	C282.372040,959.906067 261.607086,941.901001 240.743622,924.013245
	C239.761566,923.171265 238.758408,922.353882 237.158325,921.018738
	C237.158325,941.901611 237.158325,962.094788 237.158325,983.036072
	C233.312988,983.036072 229.894836,983.036072 225.980225,983.036072
z"/>
<path fill="#0178B9" opacity="1.000000" stroke="none"
	d="
M418.987396,874.115112
	C400.201111,874.115112 381.912964,874.115112 363.259949,874.115112
	C363.259949,865.114075 362.726105,856.466553 363.414581,847.917419
	C364.064178,839.851196 369.409729,835.797058 377.719574,835.791870
	C426.192108,835.761536 474.664612,835.759766 523.137146,835.793030
	C532.231506,835.799316 537.731506,841.205811 537.901672,850.316467
	C538.038574,857.642822 537.924500,864.973938 537.895020,872.302917
	C537.893127,872.762390 537.657898,873.221008 537.406799,874.131104
	C514.027954,874.131104 490.624786,874.131104 466.656067,874.131104
	C466.656067,910.655151 466.656067,946.705627 466.656067,983.067871
	C458.298157,983.067871 450.482056,983.435181 442.718628,982.953369
	C436.334198,982.557068 431.958038,976.211975 431.946045,968.335266
	C431.904114,940.850891 431.928101,913.366455 431.927063,885.882019
	C431.926941,882.224670 431.927032,878.567383 431.927032,874.115112
	C427.650970,874.115112 423.568237,874.115112 418.987396,874.115112
z"/>
<path fill="#0278B9" opacity="1.000000" stroke="none"
	d="
M598.224121,967.997192
	C598.224121,973.146423 598.224121,977.796021 598.224121,982.884888
	C587.590576,982.884888 577.155396,983.397339 566.805176,982.681702
	C561.113647,982.288208 557.302795,975.787415 557.195984,968.586914
	C557.062561,959.596558 557.158508,950.602844 557.158264,941.610535
	C557.157349,908.305786 557.157654,875.001099 557.157471,841.696350
	C557.157471,839.907593 557.157410,838.118774 557.157410,835.989136
	C567.754089,835.989136 577.869812,835.701050 587.957153,836.111267
	C592.962280,836.314880 597.286194,841.617554 597.989014,847.112305
	C598.262207,849.248352 598.214111,851.432922 598.214783,853.595398
	C598.226868,891.562805 598.223877,929.530212 598.224121,967.997192
z"/>
<path fill="#02AB91" opacity="1.000000" stroke="none"
	d="
M228.004669,279.000244
	C251.439346,263.658356 276.552246,253.398727 304.040558,250.135574
	C318.498444,248.419266 333.252533,247.503143 347.759918,248.294861
	C369.747406,249.494797 390.826141,255.447662 411.051788,264.436584
	C436.436646,275.718384 457.942017,292.204254 476.194244,312.857208
	C499.147644,338.829712 513.470947,369.168793 520.007629,403.220520
	C522.938538,418.488495 523.854431,433.922607 522.865845,449.342316
	C520.835022,481.016632 511.635437,510.539673 494.916473,537.678528
	C480.564941,560.974548 461.992371,580.276978 439.474854,595.562073
	C417.384369,610.557373 393.067657,620.429077 366.621063,625.207764
	C350.942017,628.040833 335.202972,628.737549 319.477295,627.811035
	C298.163544,626.555298 277.612701,621.358032 257.894775,612.980408
	C233.352585,602.552979 211.977142,587.503357 193.817093,568.140259
	C169.151215,541.840332 153.033524,510.834564 146.163666,475.403351
	C143.810257,463.265747 142.178589,450.751923 142.253677,438.422394
	C142.518723,394.894196 155.809921,355.555389 182.544342,320.974060
	C195.259689,304.526611 210.439651,290.728882 228.004669,279.000244
M184.076141,526.390930
	C222.732544,589.160583 290.970367,620.336914 363.007507,608.140625
	C456.041626,592.389404 519.481934,502.149353 503.202911,408.721069
	C486.469238,312.683380 394.251740,249.193604 299.141907,268.229462
	C182.264603,291.622009 123.320679,423.152557 184.076141,526.390930
z"/>
<path fill="#01AA90" opacity="1.000000" stroke="none"
	d="
M304.000977,187.030151
	C325.466919,187.030258 346.434174,187.138687 367.398590,186.943390
	C371.850159,186.901932 373.268524,188.410065 373.041534,192.723206
	C372.744598,198.365158 372.739075,204.046921 373.045135,209.687851
	C373.263611,213.714798 372.170105,215.351974 367.847961,215.101303
	C361.711853,214.745407 355.539703,215.008316 349.382965,215.010834
	C343.045502,215.013428 343.044403,215.015533 343.040527,221.593369
	C343.037567,226.585327 342.952545,231.579315 343.072083,236.568390
	C343.134033,239.153885 342.132538,240.106827 339.559570,240.071304
	C332.239441,239.970215 324.915070,239.940765 317.596405,240.085907
	C314.656860,240.144211 313.912567,238.879868 313.960205,236.199966
	C314.080933,229.407272 314.000305,222.610992 314.000305,215.227814
	C304.673767,215.227814 295.778259,215.227814 286.067780,215.227814
	C286.067780,206.084579 285.990997,197.513550 286.217072,188.950531
	C286.234680,188.283310 288.348907,187.176498 289.527802,187.122101
	C294.177155,186.907547 298.842102,187.031647 304.000977,187.030151
z"/>
<path fill="#01AA90" opacity="1.000000" stroke="none"
	d="
M497.234497,287.736755
	C499.409637,289.565918 501.331299,291.145844 503.690125,293.085205
	C498.186279,299.266418 493.386230,304.657227 488.214325,310.465668
	C482.747040,305.764160 477.595367,301.406097 472.525269,296.955139
	C466.667969,291.813141 460.775543,286.700134 455.169159,281.293793
	C454.214386,280.373047 453.797852,277.370880 454.531097,276.475647
	C458.614563,271.489868 463.128845,266.856964 467.848389,261.719482
	C477.688416,270.423065 487.334686,278.955292 497.234497,287.736755
z"/>
<path fill="#0278B9" opacity="1.000000" stroke="none"
	d="
M813.503052,319.675751
	C802.127258,321.202209 791.108459,323.920929 780.148376,323.702179
	C753.686401,323.173950 729.804443,314.504974 709.057922,297.642365
	C686.580200,279.372711 672.304565,256.061584 667.533569,227.623169
	C661.890869,193.988968 668.690979,162.976227 689.839417,135.526688
	C708.331848,111.524521 732.429749,96.583626 762.130493,91.610893
	C797.575195,85.676437 829.680542,93.848640 857.625122,117.041893
	C878.360291,134.251556 891.297302,156.119904 897.022278,182.322861
	C902.357178,206.740341 899.833984,230.422867 889.883179,253.321533
	C878.262512,280.062897 858.986145,299.527893 832.998596,312.350464
	C826.925415,315.347076 820.272827,317.169464 813.503052,319.675751
M752.074707,110.447472
	C702.957947,126.540657 673.259094,176.366745 683.369934,225.714355
	C693.906799,277.141083 739.445374,311.537689 791.255554,307.203308
	C858.795715,301.553040 901.606750,231.905228 876.334534,169.021423
	C858.153015,123.781021 807.197693,94.144447 752.074707,110.447472
z"/>
<path fill="#0278B9" opacity="1.000000" stroke="none"
	d="
M767.669434,636.881226
	C746.694702,640.213013 727.960388,635.466675 711.100586,623.610535
	C693.017517,610.894104 682.814880,593.248962 679.966003,571.362122
	C676.532410,544.983093 685.031494,522.654236 704.595398,505.180481
	C724.349060,487.537201 747.994690,481.473206 773.705200,488.272949
	C804.616455,496.448120 823.974426,516.872192 829.830627,548.366943
	C837.554138,589.903564 810.968201,627.938110 769.515808,636.331299
	C769.030762,636.429504 768.570984,636.652344 767.669434,636.881226
M763.116882,501.002930
	C720.461548,495.870697 687.259155,533.180542 695.003601,573.795166
	C701.274658,606.682617 734.206604,628.618042 767.693237,621.847717
	C800.261475,615.263184 822.262512,582.505493 815.281799,550.296021
	C809.275391,522.582275 791.639954,506.520935 763.116882,501.002930
z"/>
<path fill="#FEFFFF" opacity="1.000000" stroke="none"
	d="
M183.908218,526.066772
	C123.320679,423.152557 182.264603,291.622009 299.141907,268.229462
	C394.251740,249.193604 486.469238,312.683380 503.202911,408.721069
	C519.481934,502.149353 456.041626,592.389404 363.007507,608.140625
	C290.970367,620.336914 222.732544,589.160583 183.908218,526.066772
M467.219849,486.369720
	C484.669037,436.373260 477.722961,390.006134 444.440094,348.827454
	C416.131927,313.803680 378.251251,297.848877 332.808075,297.875092
	C332.808075,339.324585 332.808075,380.099091 332.088928,420.851318
	C324.021637,420.244415 318.784088,422.843872 315.888519,428.891754
	C313.298126,434.302216 314.288391,440.782379 318.372284,445.145569
	C322.912933,449.996857 328.883484,450.817810 336.243103,448.078705
	C337.821411,447.491241 340.084076,447.802734 341.724487,448.462921
	C367.324615,458.766266 392.882965,469.173767 418.432220,479.603058
	C433.135803,485.605164 447.805908,491.689270 463.049683,497.966492
	C464.397247,494.115143 465.636719,490.572845 467.219849,486.369720
z"/>
<path fill="#01AB90" opacity="1.000000" stroke="none"
	d="
M332.808075,420.873596
	C332.808075,380.099091 332.808075,339.324585 332.808075,297.875092
	C378.251251,297.848877 416.131927,313.803680 444.440094,348.827454
	C477.722961,390.006134 484.669037,436.373260 466.690613,486.645813
	C443.396454,477.649323 420.640076,468.355682 397.863708,459.111206
	C381.243835,452.365540 364.572754,445.744843 348.002350,438.880524
	C346.368073,438.203522 344.342560,436.358521 344.097443,434.803619
	C342.998718,427.833313 339.304840,423.302704 332.808075,420.873596
z"/>
<path fill="#0379B9" opacity="1.000000" stroke="none"
	d="
M332.448486,420.862457
	C339.304840,423.302704 342.998718,427.833313 344.097443,434.803619
	C344.342560,436.358521 346.368073,438.203522 348.002350,438.880524
	C364.572754,445.744843 381.243835,452.365540 397.863708,459.111206
	C420.640076,468.355682 443.396454,477.649323 466.518799,486.976227
	C465.636719,490.572845 464.397247,494.115143 463.049683,497.966492
	C447.805908,491.689270 433.135803,485.605164 418.432220,479.603058
	C392.882965,469.173767 367.324615,458.766266 341.724487,448.462921
	C340.084076,447.802734 337.821411,447.491241 336.243103,448.078705
	C328.883484,450.817810 322.912933,449.996857 318.372284,445.145569
	C314.288391,440.782379 313.298126,434.302216 315.888519,428.891754
	C318.784088,422.843872 324.021637,420.244415 332.448486,420.862457
M334.434692,440.997742
	C338.005096,436.005188 337.810028,431.593536 333.903259,428.979004
	C329.609802,426.105682 325.292755,426.982880 322.404419,431.226013
	C320.183807,434.488251 320.882324,437.760071 323.102814,440.346771
	C326.079834,443.814758 329.949219,443.874969 334.434692,440.997742
z"/>
<path fill="#01A991" opacity="1.000000" stroke="none"
	d="
M334.129883,441.249023
	C329.949219,443.874969 326.079834,443.814758 323.102814,440.346771
	C320.882324,437.760071 320.183807,434.488251 322.404419,431.226013
	C325.292755,426.982880 329.609802,426.105682 333.903259,428.979004
	C337.810028,431.593536 338.005096,436.005188 334.129883,441.249023
z"/>
</svg>
